<svg xmlns="http://www.w3.org/2000/svg" width="259.878" height="36.198" viewBox="0 0 259.878 36.198"><g transform="translate(-939.558 -446)"><g transform="translate(1148.334 445.851)"><path d="M17.641,30.927a.776.776,0,0,0-.824-.818H2.473a.818.818,0,1,0,0,1.636H16.817A.823.823,0,0,0,17.641,30.927Z" fill="#fff"/><path d="M5.77,34.2H4.122a.818.818,0,1,0,0,1.636H5.77a.818.818,0,1,0,0-1.636Z" fill="#fff"/><path d="M9.645,26.836a.776.776,0,0,0-.824-.818h-8a.818.818,0,1,0,0,1.636h8A.823.823,0,0,0,9.645,26.836Z" fill="#fff"/><path d="M50.615,28.227a2.785,2.785,0,0,0-1.237-1.145l-6.265-2.373h0l-2.555-.9a4.024,4.024,0,0,1-1.814-1.473L36.6,18.818A.8.8,0,0,0,37.261,18a.776.776,0,0,0-.824-.818h-.824l-.989-1.636a.8.8,0,0,0,.659-.818.776.776,0,0,0-.824-.818h-.824L32.809,12.6a.787.787,0,0,0,.577-.736.776.776,0,0,0-.824-.818H31.82L30.748,9.327a.08.08,0,0,0-.082-.082,4.2,4.2,0,0,0-3.71-1.555,3.359,3.359,0,0,0-2.638,1.8.79.79,0,0,0,.082.736l6.842,11.618a.547.547,0,0,0,.412.327l8.408,3.191h.082l2.473.9h0L48.8,28.636a.675.675,0,0,1,.412.409,1.876,1.876,0,0,1-.082,1.964H35.694a3.876,3.876,0,0,1-2.308-.736l-23-16.936a2.39,2.39,0,0,0,.742-.736,3.5,3.5,0,0,0,.577-2.045l-.742-6.873.989-1.555a.786.786,0,0,1,1.072-.164c.247.245,1.237,1.064,3.627,4.909a8.116,8.116,0,0,0,5.441,3.436.9.9,0,0,0,.989-.655.9.9,0,0,0-.659-.982,6.809,6.809,0,0,1-4.369-2.782C15.168,1.473,14.344.818,14.014.573a2.5,2.5,0,0,0-3.38.573L5.606,9.082a2.289,2.289,0,0,0-.33,1.636,1.978,1.978,0,0,0-1.237.9L2.72,13.664a2.362,2.362,0,0,0,.659,3.273c.742.573,2.308,1.555,4.616,3.027a1.4,1.4,0,0,0,.412.164.841.841,0,0,0,.659-.409.8.8,0,0,0-.247-1.145C6.595,17.1,5.029,16.118,4.287,15.545a.759.759,0,0,1-.165-1.064L5.358,12.6a.786.786,0,0,1,1.072-.164h0L32.315,31.582a5.465,5.465,0,0,0,3.3,1.064H46.988A15.663,15.663,0,0,1,40.805,34.2H35.529a7.433,7.433,0,0,1-3.957-1.145c-4.781-3.027-13.684-8.673-20.2-12.845a.814.814,0,0,0-1.154.245.8.8,0,0,0,.247,1.145c6.347,4.091,15,9.573,19.867,12.682H9.068a.818.818,0,1,0,0,1.636H40.723c3.38,0,8.243-1.8,9.48-3.518A3.6,3.6,0,0,0,50.615,28.227ZM32.4,20.864,25.967,9.982a2.19,2.19,0,0,1,1.154-.573,2.5,2.5,0,0,1,2.226.9l.495.818H29.1a.818.818,0,1,0,0,1.636h1.731l.824,1.309H31a.818.818,0,1,0,0,1.636h1.649l.989,1.555h-.659a.818.818,0,1,0,0,1.636h1.649l2.308,3.6ZM7.007,9.982,9.562,5.973l.495,4.745a1.64,1.64,0,0,1-.247.9c-.165.245-.495.9-1.237.327a13.191,13.191,0,0,1-1.154-.818C6.925,10.718,6.842,10.309,7.007,9.982Z" fill="#fff"/></g><path d="M9.7-6.423H6.839V1.311H1.558V-20.6H10.18a9.616,9.616,0,0,1,6.094,1.731,5.866,5.866,0,0,1,2.2,4.891,7.127,7.127,0,0,1-.925,3.792,6.57,6.57,0,0,1-2.9,2.438l4.575,8.833v.226H13.566ZM6.839-10.5H10.18a3,3,0,0,0,2.265-.79,3.049,3.049,0,0,0,.76-2.2,3.085,3.085,0,0,0-.767-2.22,2.975,2.975,0,0,0-2.257-.805H6.839ZM35.25-7.973H26.943v5.222h9.811V1.311H21.662V-20.6H36.785v4.078H26.943v4.62H35.25Zm16.1,5.192H44.113L42.849,1.311H37.206L45.242-20.6h4.966l8.1,21.91H52.63ZM45.377-6.86h4.71l-2.363-7.6Zm31.932.752a8,8,0,0,1-1.234,4.04A7.447,7.447,0,0,1,72.907.649a10.781,10.781,0,0,1-4.657.963,8.6,8.6,0,0,1-6.8-2.814q-2.483-2.814-2.483-7.945v-1.083a13.262,13.262,0,0,1,1.121-5.635A8.494,8.494,0,0,1,63.314-19.6a9.006,9.006,0,0,1,4.876-1.317,9.444,9.444,0,0,1,6.41,2.1,8.294,8.294,0,0,1,2.754,5.786H72.087A3.924,3.924,0,0,0,71.079-15.9a4.147,4.147,0,0,0-2.889-.873A3.155,3.155,0,0,0,65.3-15.3a9.478,9.478,0,0,0-.963,4.71v1.55a10.488,10.488,0,0,0,.88,5.011,3.221,3.221,0,0,0,3.032,1.5,4.056,4.056,0,0,0,2.784-.858,3.64,3.64,0,0,0,1.023-2.724ZM96.57-16.521H89.994V1.311H84.712V-16.521H78.257V-20.6H96.57ZM109.857-4.512a2.17,2.17,0,0,0-.82-1.806,10.193,10.193,0,0,0-2.882-1.339A27.646,27.646,0,0,1,102.785-9q-4.259-2.092-4.259-5.748a5.155,5.155,0,0,1,1.061-3.213,6.862,6.862,0,0,1,3-2.167,11.682,11.682,0,0,1,4.364-.775,10.219,10.219,0,0,1,4.236.843,6.707,6.707,0,0,1,2.912,2.4,6.268,6.268,0,0,1,1.038,3.559h-5.267a2.649,2.649,0,0,0-.82-2.077,3.2,3.2,0,0,0-2.22-.737,3.6,3.6,0,0,0-2.235.624,1.916,1.916,0,0,0-.82,1.588,1.929,1.929,0,0,0,.9,1.527,11.386,11.386,0,0,0,3.175,1.414,19.45,19.45,0,0,1,3.732,1.573,6.271,6.271,0,0,1,3.551,5.643,5.35,5.35,0,0,1-2.167,4.514,9.638,9.638,0,0,1-5.944,1.64,11.793,11.793,0,0,1-4.823-.956,7.271,7.271,0,0,1-3.25-2.618,6.822,6.822,0,0,1-1.091-3.83h5.3a3.36,3.36,0,0,0,.91,2.6,4.3,4.3,0,0,0,2.957.835,3.4,3.4,0,0,0,2.069-.564A1.862,1.862,0,0,0,109.857-4.512Zm26.3,5.824h-5.252V-7.838h-7.78V1.311h-5.282V-20.6h5.282v8.7h7.78v-8.7h5.252Zm21.895-10.5a12.92,12.92,0,0,1-1.189,5.673,8.786,8.786,0,0,1-3.378,3.8A9.407,9.407,0,0,1,148.5,1.612,9.54,9.54,0,0,1,143.534.326a8.771,8.771,0,0,1-3.378-3.679,12.548,12.548,0,0,1-1.272-5.492V-10.08a12.977,12.977,0,0,1,1.181-5.681,8.764,8.764,0,0,1,3.386-3.8A9.472,9.472,0,0,1,148.47-20.9a9.38,9.38,0,0,1,4.966,1.324,8.922,8.922,0,0,1,3.393,3.769,12.6,12.6,0,0,1,1.226,5.605Zm-5.372-.918a9.213,9.213,0,0,0-1.091-4.958,3.5,3.5,0,0,0-3.122-1.693q-3.973,0-4.2,5.959l-.015,1.61a9.476,9.476,0,0,0,1.068,4.951A3.494,3.494,0,0,0,148.5-2.511a3.452,3.452,0,0,0,3.085-1.7,9.217,9.217,0,0,0,1.1-4.891Zm21.684,2.137h-8.306v5.222h9.811V1.311H160.779V-20.6H175.9v4.078h-9.841v4.62h8.306Zm14.958,3.461a2.17,2.17,0,0,0-.82-1.806,10.193,10.193,0,0,0-2.882-1.339A27.646,27.646,0,0,1,182.252-9q-4.259-2.092-4.259-5.748a5.155,5.155,0,0,1,1.061-3.213,6.862,6.862,0,0,1,3-2.167,11.683,11.683,0,0,1,4.364-.775,10.219,10.219,0,0,1,4.236.843,6.707,6.707,0,0,1,2.912,2.4,6.268,6.268,0,0,1,1.038,3.559H189.34a2.649,2.649,0,0,0-.82-2.077,3.2,3.2,0,0,0-2.22-.737,3.6,3.6,0,0,0-2.235.624,1.916,1.916,0,0,0-.82,1.588,1.929,1.929,0,0,0,.9,1.527,11.386,11.386,0,0,0,3.175,1.414,19.45,19.45,0,0,1,3.732,1.573,6.271,6.271,0,0,1,3.551,5.643A5.35,5.35,0,0,1,192.44-.028a9.638,9.638,0,0,1-5.944,1.64,11.793,11.793,0,0,1-4.823-.956,7.271,7.271,0,0,1-3.25-2.618,6.822,6.822,0,0,1-1.091-3.83h5.3a3.36,3.36,0,0,0,.91,2.6,4.3,4.3,0,0,0,2.957.835,3.4,3.4,0,0,0,2.069-.564A1.862,1.862,0,0,0,189.325-4.512Z" transform="translate(938 480.586)" fill="#fff"/></g></svg>